<?xml version="1.0" encoding="utf-8"?>
<!-- Generator: Adobe Illustrator 15.0.0, SVG Export Plug-In  -->
<!DOCTYPE svg PUBLIC "-//W3C//DTD SVG 1.1//EN" "http://www.w3.org/Graphics/SVG/1.1/DTD/svg11.dtd" [
	<!ENTITY ns_flows "http://ns.adobe.com/Flows/1.0/">
]>
<svg version="1.1"
	 xmlns="http://www.w3.org/2000/svg" xmlns:xlink="http://www.w3.org/1999/xlink" xmlns:a="http://ns.adobe.com/AdobeSVGViewerExtensions/3.0/"
	 x="0px" y="0px" width="1240px" height="650px" viewBox="-12.638 -47.601 1240 650"
	 overflow="visible" enable-background="new -12.638 -47.601 1240 650" xml:space="preserve">
<defs>
</defs>
<text transform="matrix(1 0 0 1 589.2529 61.2598)" fill="#5B5F51" font-family="'Roboto-Bold'" font-size="10" letter-spacing="1">online petition</text>
<text transform="matrix(1 0 0 1 589.2529 209.7471)" fill="#5B5F51" font-family="'Roboto-Bold'" font-size="10" letter-spacing="1">online petition</text>
<text transform="matrix(1 0 0 1 589.2529 257.2471)" fill="#5B5F51" font-family="'Roboto-Bold'" font-size="10" letter-spacing="1">single article</text>
<text transform="matrix(1 0 0 1 589.2529 110.6045)" fill="#5B5F51" font-family="'Roboto-Bold'" font-size="10" letter-spacing="1">news</text>
<text transform="matrix(1 0 0 1 589.2529 307.6045)" fill="#5B5F51" font-family="'Roboto-Bold'" font-size="10" letter-spacing="1">news</text>
<text transform="matrix(1 0 0 1 589.2529 403.7471)" fill="#5B5F51" font-family="'Roboto-Bold'" font-size="10" letter-spacing="1">ngo</text>
<text transform="matrix(1 0 0 1 589.2529 354.9326)" fill="#5B5F51" font-family="'Roboto-Bold'" font-size="10" letter-spacing="1">ngo</text>
<text transform="matrix(1 0 0 1 589.2529 161.6006)" fill="#5B5F51" font-family="'Roboto-Bold'" font-size="10" letter-spacing="1">ngo</text>
<text transform="matrix(1 0 0 1 589.2529 453.2666)" fill="#5B5F51" font-family="'Roboto-Bold'" font-size="10" letter-spacing="1">ngo</text>
<text transform="matrix(1 0 0 1 589.2529 502.6592)" fill="#5B5F51" font-family="'Roboto-Bold'" font-size="10" letter-spacing="1">news</text>
<rect x="586.875" y="65.26" fill="none" width="407.542" height="482.162"/>
<text transform="matrix(1 0 0 1 586.8745 88.1196)"><tspan x="0" y="0" fill="#BBD3EC" font-family="'Roboto-Black'" font-size="30">I DECIDE MY FUTURE</tspan><tspan x="0" y="48" fill="#BBD3EC" font-family="'Roboto-Black'" font-size="28.125">IDS COMMUNITY DAILY</tspan><tspan x="0" y="96" fill="#BBD3EC" font-family="'Roboto-Black'" font-size="20.3646">AFRICA PROGRESS PANEL REPORT 2014</tspan><tspan x="0" y="144" fill="#BBD3EC" font-family="'Roboto-Black'" font-size="20.1042">#IDECIDE MY FUTURE</tspan><tspan x="0" y="192" fill="#BBD3EC" font-family="'Roboto-Black'" font-size="19.6354">GOLDEN RICE FIELD TRIAL VANDALIZED</tspan><tspan x="0" y="240" fill="#BBD3EC" font-family="'Roboto-Black'" font-size="18.2292">CGIAR-ON-TWITTER DAILY</tspan><tspan x="0" y="288" fill="#BBD3EC" font-family="'Roboto-Black'" font-size="16.5625">LIVE BELOW THE LINE</tspan><tspan x="0" y="336" fill="#BBD3EC" font-family="'Roboto-Black'" font-size="15.625">BIOVERSITY INTERNATIONAL</tspan><tspan x="0" y="384" fill="#BBD3EC" font-family="'Roboto-Black'" font-size="14.6875">AFRICA PROGRESS PANEL</tspan><tspan x="0" y="432" fill="#BBD3EC" font-family="'Roboto-Black'" font-size="14.6875">EURACTIV</tspan></text>
<g>
	<rect x="570.208" y="81.26" fill="none" width="1151.793" height="482.162"/>
	<text transform="matrix(1 0 0 1 570.208 88.8799)"><tspan x="0" y="0" fill="#312A37" font-family="'Roboto-Regular'" font-size="10">1</tspan><tspan x="0" y="48" fill="#312A37" font-family="'Roboto-Regular'" font-size="10">2</tspan><tspan x="0" y="96" fill="#312A37" font-family="'Roboto-Regular'" font-size="10">3</tspan><tspan x="0" y="144" fill="#312A37" font-family="'Roboto-Regular'" font-size="10">4</tspan><tspan x="0" y="192" fill="#312A37" font-family="'Roboto-Regular'" font-size="10">5</tspan><tspan x="0" y="240" fill="#312A37" font-family="'Roboto-Regular'" font-size="10">6</tspan><tspan x="0" y="288" fill="#312A37" font-family="'Roboto-Regular'" font-size="10">7</tspan><tspan x="0" y="336" fill="#312A37" font-family="'Roboto-Regular'" font-size="10">8</tspan><tspan x="0" y="384" fill="#312A37" font-family="'Roboto-Regular'" font-size="10">9</tspan><tspan x="0" y="432" fill="#312A37" font-family="'Roboto-Regular'" font-size="10">10</tspan></text>
</g>
<text transform="matrix(1 0 0 1 390.9902 8.5547)"><tspan x="0" y="0" fill="#312A37" font-family="'Roboto-Regular'" font-size="10">Do you decide what you do</tspan><tspan x="28.555" y="12" fill="#312A37" font-family="'Roboto-Regular'" font-size="10">with</tspan><tspan x="47.783" y="12" fill="#C92929" font-family="'Roboto-Regular'" font-size="10"> your own body</tspan><tspan x="116.079" y="12" fill="#312A37" font-family="'Roboto-Regular'" font-size="10">?</tspan><tspan x="6.987" y="24" fill="#312A37" font-family="'Roboto-Regular'" font-size="10">Whether to get pregnant?</tspan><tspan x="15.22" y="36" fill="#312A37" font-family="'Roboto-Regular'" font-size="10">Who you love and how?</tspan><tspan x="8.477" y="48" fill="#312A37" font-family="'Roboto-Regular'" font-size="10">Shockingly many women</tspan><tspan x="3.345" y="60" fill="#312A37" font-family="'Roboto-Regular'" font-size="10">and men around the world</tspan><tspan x="-8.652" y="72" fill="#312A37" font-family="'Roboto-Regular'" font-size="10">are denied these basic rights</tspan><tspan x="-24.521" y="84" fill="#312A37" font-family="'Roboto-Regular'" font-size="10">by governments and by tradition</tspan></text>
<g>
	<rect x="340.885" y="185.219" fill="none" width="170.94" height="47.379"/>
	<text transform="matrix(1 0 0 1 354.9307 192.8389)"><tspan x="0" y="0" fill="#312A37" font-family="'Roboto-Regular'" font-size="10">“#IDECIDE about my body &amp; future. </tspan><tspan x="-0.933" y="12" fill="#312A37" font-family="'Roboto-Regular'" font-size="10">Add your name with mine 2DAY tell </tspan><tspan x="-9.336" y="24" fill="#312A37" font-family="'Roboto-Regular'" font-size="10">UN to keep our </tspan><tspan x="59.829" y="24" fill="#C92929" font-family="'Roboto-Regular'" font-size="10">sexual health &amp; rights </tspan><tspan x="20.42" y="36" fill="#312A37" font-family="'Roboto-Regular'" font-size="10">safe! http://thndr.it/1vgO2QU”</tspan></text>
</g>
<g>
	<rect x="340.885" y="272.341" fill="none" width="170.94" height="47.38"/>
	<text transform="matrix(1 0 0 1 385.3359 279.9619)"><tspan x="0" y="0" fill="#312A37" font-family="'Roboto-Regular'" font-size="10">Dr. Bruce Tolentino makes a </tspan><tspan x="-38.213" y="12" fill="#312A37" font-family="'Roboto-Regular'" font-size="10">statement that Golden Rice research </tspan><tspan x="-23.999" y="24" fill="#312A37" font-family="'Roboto-Regular'" font-size="10">to </tspan><tspan x="-12.373" y="24" fill="#C92929" font-family="'Roboto-Regular'" font-size="10">improve nutrition</tspan><tspan x="64.6" y="24" fill="#312A37" font-family="'Roboto-Regular'" font-size="10">  will continue </tspan><tspan x="2.598" y="36" fill="#312A37" font-family="'Roboto-Regular'" font-size="10">despite field trial vandalism</tspan></text>
</g>
<g>
	<rect x="311.803" y="413.747" fill="none" width="200.022" height="62.012"/>
	<text transform="matrix(1 0 0 1 319.4766 421.3672)"><tspan x="0" y="0" fill="#312A37" font-family="'Roboto-Regular'" font-size="10">produces scientific evidence, management </tspan><tspan x="15.962" y="12" fill="#312A37" font-family="'Roboto-Regular'" font-size="10">practices and policy options to use and </tspan><tspan x="38.638" y="24" fill="#312A37" font-family="'Roboto-Regular'" font-size="10">safeguard </tspan><tspan x="86.567" y="24" fill="#C92929" font-family="'Roboto-Regular'" font-size="10">agricultural biodiversity</tspan></text>
</g>
<g>
	<g>
		<line fill="none" stroke="#312A37" stroke-miterlimit="10" x1="563.996" y1="418.209" x2="520.417" y2="418.209"/>
		<g>
			<rect x="563.496" y="414.959" fill="#312A37" width="1" height="6.5"/>
		</g>
	</g>
</g>
<g>
	<rect x="311.803" y="513.835" fill="none" width="200.022" height="62.012"/>
	<text transform="matrix(1 0 0 1 388.749 521.4551)"><tspan x="0" y="0" fill="#312A37" font-family="'Roboto-Regular'" font-size="10">Wrap-up: public hearings of </tspan><tspan x="5.698" y="12" fill="#312A37" font-family="'Roboto-Regular'" font-size="10">Commissioners-designate</tspan></text>
</g>
<g>
	<g>
		<line fill="none" stroke="#312A37" stroke-miterlimit="10" x1="563.996" y1="518.297" x2="520.417" y2="518.297"/>
		<g>
			<rect x="563.496" y="515.047" fill="#312A37" width="1" height="6.5"/>
		</g>
	</g>
</g>
<g>
	<g>
		<line fill="none" stroke="#312A37" stroke-miterlimit="10" x1="563.996" y1="85.752" x2="520.417" y2="85.752"/>
		<g>
			<rect x="563.496" y="82.502" fill="#312A37" width="1" height="6.5"/>
		</g>
	</g>
</g>
<text transform="matrix(1 0 0 1 342.4844 135.5078)"><tspan x="0" y="0" fill="#312A37" font-family="'Roboto-Regular'" font-size="10">The Institute of Development Studies </tspan><tspan x="-6.377" y="12" fill="#312A37" font-family="'Roboto-Regular'" font-size="10">is a leading </tspan><tspan x="47.202" y="12" fill="#C92929" font-family="'Roboto-Regular'" font-size="10">global charity for research</tspan><tspan x="164.883" y="12" fill="#312A37" font-family="'Roboto-Regular'" font-size="10">, </tspan><tspan x="30.161" y="24" fill="#C92929" font-family="'Roboto-Regular'" font-size="10">teaching</tspan><tspan x="69.282" y="24" fill="#312A37" font-family="'Roboto-Regular'" font-size="10"> and </tspan><tspan x="91.118" y="24" fill="#C92929" font-family="'Roboto-Regular'" font-size="10">communications</tspan><tspan x="166.855" y="24" fill="#312A37" font-family="'Roboto-Regular'" font-size="10"> </tspan><tspan x="35.063" y="36" fill="#312A37" font-family="'Roboto-Regular'" font-size="10">on international development.</tspan></text>
<g>
	<g>
		<line fill="none" stroke="#312A37" stroke-miterlimit="10" x1="563.996" y1="133" x2="520.417" y2="133"/>
		<g>
			<rect x="563.496" y="129.75" fill="#312A37" width="1" height="6.5"/>
		</g>
	</g>
</g>
<g>
	<g>
		<line fill="none" stroke="#312A37" stroke-miterlimit="10" x1="563.996" y1="227.216" x2="520.417" y2="227.216"/>
		<g>
			<rect x="563.496" y="223.966" fill="#312A37" width="1" height="6.5"/>
		</g>
	</g>
</g>
<g>
	<g>
		<line fill="none" stroke="#312A37" stroke-miterlimit="10" x1="563.996" y1="275.911" x2="520.417" y2="275.911"/>
		<g>
			<rect x="563.496" y="272.661" fill="#312A37" width="1" height="6.5"/>
		</g>
	</g>
</g>
<text transform="matrix(1 0 0 1 150 76.9663)"><tspan x="0" y="0" fill="#312A37" font-family="'Roboto-Regular'" font-size="8">size =</tspan><tspan x="0" y="9.6" fill="#312A37" font-family="'Roboto-Regular'" font-size="8">url frequency</tspan></text>
<text transform="matrix(1 0 0 1 0 61.2598)" fill="#5B5F51" font-family="'Roboto-Bold'" font-size="10" letter-spacing="1">url category</text>
<g>
	<rect x="0" y="105.064" fill="none" width="112.417" height="39.763"/>
	<text transform="matrix(1 0 0 1 4.882812e-04 112.6836)"><tspan x="0" y="0" fill="#312A37" font-family="'Roboto-Regular'" font-size="10">“</tspan><tspan x="3.633" y="0" fill="#C92929" font-family="'Roboto-Regular'" font-size="10">relevant</tspan><tspan x="39.824" y="0" fill="#312A37" font-family="'Roboto-Regular'" font-size="10"> content”</tspan></text>
</g>
<text transform="matrix(1 0 0 1 4.882812e-04 87.0527)" fill="#312A37" font-family="'Roboto-Black'" font-size="24.1886">URL TITLE</text>
<g>
	<g>
		<line fill="none" stroke="#312A37" stroke-miterlimit="10" x1="136.417" y1="66.462" x2="136.417" y2="91.484"/>
		<g>
			<path fill="#312A37" d="M131.386,72.874c0,0.165,0.082,0.327,0.231,0.422c0.232,0.148,0.542,0.08,0.69-0.153l4.109-6.453
				l4.109,6.453c0.148,0.233,0.458,0.302,0.69,0.153s0.3-0.459,0.153-0.69l-4.531-7.115c-0.092-0.144-0.251-0.231-0.422-0.231
				s-0.33,0.087-0.422,0.231l-4.531,7.115C131.411,72.689,131.386,72.782,131.386,72.874
				C131.386,73.039,131.386,72.782,131.386,72.874z"/>
		</g>
		<g>
			<path fill="#312A37" d="M131.386,85.072c0-0.165,0.082-0.327,0.231-0.422c0.232-0.148,0.542-0.08,0.69,0.153l4.109,6.453
				l4.109-6.453c0.148-0.233,0.458-0.302,0.69-0.153s0.3,0.459,0.153,0.69l-4.531,7.115c-0.092,0.144-0.251,0.231-0.422,0.231
				s-0.33-0.087-0.422-0.231l-4.531-7.115C131.411,85.257,131.386,85.164,131.386,85.072
				C131.386,84.907,131.386,85.164,131.386,85.072z"/>
		</g>
	</g>
</g>
</svg>
