<?xml version="1.0" encoding="utf-8"?>
<!-- Generator: Adobe Illustrator 15.0.0, SVG Export Plug-In  -->
<!DOCTYPE svg PUBLIC "-//W3C//DTD SVG 1.1//EN" "http://www.w3.org/Graphics/SVG/1.1/DTD/svg11.dtd" [
	<!ENTITY ns_flows "http://ns.adobe.com/Flows/1.0/">
]>
<svg version="1.1"
	 xmlns="http://www.w3.org/2000/svg" xmlns:xlink="http://www.w3.org/1999/xlink" xmlns:a="http://ns.adobe.com/AdobeSVGViewerExtensions/3.0/"
	 x="0px" y="0px" width="1240px" height="650px" viewBox="-12.638 -100.306 1240 650"
	 overflow="visible" enable-background="new -12.638 -100.306 1240 650" xml:space="preserve">
<defs>
</defs>
<text transform="matrix(1 0 0 1 589.2529 8.5547)" fill="#5B5F51" font-family="'Roboto-Bold'" font-size="10" letter-spacing="1">university</text>
<text transform="matrix(1 0 0 1 589.2529 207.042)" fill="#5B5F51" font-family="'Roboto-Bold'" font-size="10" letter-spacing="1">online price</text>
<text transform="matrix(1 0 0 1 589.2529 254.542)" fill="#5B5F51" font-family="'Roboto-Bold'" font-size="10" letter-spacing="1">initiative</text>
<text transform="matrix(1 0 0 1 589.2529 57.8994)" fill="#5B5F51" font-family="'Roboto-Bold'" font-size="10" letter-spacing="1">university</text>
<text transform="matrix(1 0 0 1 589.2529 110.6455)" fill="#5B5F51" font-family="'Roboto-Bold'" font-size="10" letter-spacing="1">university</text>
<text transform="matrix(1 0 0 1 589.2529 304.8994)" fill="#5B5F51" font-family="'Roboto-Bold'" font-size="10" letter-spacing="1">initiative</text>
<text transform="matrix(1 0 0 1 589.2529 401.042)" fill="#5B5F51" font-family="'Roboto-Bold'" font-size="10" letter-spacing="1">initiative</text>
<text transform="matrix(1 0 0 1 589.2529 352.2275)" fill="#5B5F51" font-family="'Roboto-Bold'" font-size="10" letter-spacing="1">ebay shop</text>
<text transform="matrix(1 0 0 1 589.2529 158.8955)" fill="#5B5F51" font-family="'Roboto-Bold'" font-size="10" letter-spacing="1">facebook group</text>
<text transform="matrix(1 0 0 1 589.2529 450.5615)" fill="#5B5F51" font-family="'Roboto-Bold'" font-size="10" letter-spacing="1">job</text>
<g>
	<rect x="340.885" y="23.888" fill="none" width="170.939" height="29.377"/>
	<text transform="matrix(1 0 0 1 420.9561 31.5073)" fill="#312A37" font-family="'Roboto-Regular'" font-size="10">A medical university</text>
</g>
<g>
	<rect x="315.417" y="133.16" fill="none" width="196.408" height="64.114"/>
	<text transform="matrix(1 0 0 1 334.6909 140.7798)"><tspan x="0" y="0" fill="#312A37" font-family="'Roboto-Regular'" font-size="10">We are calling on everyone to “Open up, </tspan><tspan x="-13.623" y="12" fill="#312A37" font-family="'Roboto-Regular'" font-size="10">Reach out,” to </tspan><tspan x="51.846" y="12" fill="#C92929" font-family="'Roboto-Regular'" font-size="10">transform communities</tspan><tspan x="157.783" y="12" fill="#312A37" font-family="'Roboto-Regular'" font-size="10"> and </tspan><tspan x="-2.207" y="24" fill="#312A37" font-family="'Roboto-Regular'" font-size="10">move towards a world where everyone’s </tspan><tspan x="87.295" y="36" fill="#312A37" font-family="'Roboto-Regular'" font-size="10">rights are respected</tspan></text>
</g>
<g>
	<rect x="335.751" y="212.896" fill="none" width="176.074" height="59.78"/>
	<text transform="matrix(1 0 0 1 350.7021 220.5151)"><tspan x="0" y="0" fill="#312A37" font-family="'Roboto-Regular'" font-size="10">You and a friend have the chance to </tspan><tspan x="-10.859" y="12" fill="#312A37" font-family="'Roboto-Regular'" font-size="10">meet Marc Marquez and Dani Pedrosa </tspan><tspan x="-10.659" y="24" fill="#312A37" font-family="'Roboto-Regular'" font-size="10">in partnership with MotoGP™ and their </tspan><tspan x="16.416" y="36" fill="#C92929" font-family="'Roboto-Regular'" font-size="10">official charity</tspan><tspan x="80.776" y="36" fill="#312A37" font-family="'Roboto-Regular'" font-size="10">, Riders for Health</tspan></text>
</g>
<g>
	<rect x="351.842" y="312.788" fill="none" width="159.983" height="96.134"/>
	<text transform="matrix(1 0 0 1 366.2588 320.4077)"><tspan x="0" y="0" fill="#312A37" font-family="'Roboto-Regular'" font-size="10">is a movement building initiative </tspan><tspan x="2.876" y="12" fill="#312A37" font-family="'Roboto-Regular'" font-size="10">that aims to secure a </tspan><tspan x="100.249" y="12" fill="#C92929" font-family="'Roboto-Regular'" font-size="10">post-2015 </tspan><tspan x="15.942" y="24" fill="#C92929" font-family="'Roboto-Regular'" font-size="10">development framework</tspan><tspan x="124.985" y="24" fill="#312A37" font-family="'Roboto-Regular'" font-size="10"> that </tspan><tspan x="-11.06" y="36" fill="#312A37" font-family="'Roboto-Regular'" font-size="10">advances the sexual and reproduc</tspan><tspan x="142.827" y="36" fill="#312A37" font-family="'Roboto-Regular'" font-size="10">-</tspan><tspan x="15.137" y="48" fill="#312A37" font-family="'Roboto-Regular'" font-size="10">tive health rights and the </tspan><tspan x="129.282" y="48" fill="#C92929" font-family="'Roboto-Regular'" font-size="10">HIV </tspan><tspan x="26.123" y="60" fill="#C92929" font-family="'Roboto-Regular'" font-size="10">response for young people</tspan></text>
</g>
<g>
	<rect x="381.91" y="408.549" fill="none" width="129.916" height="71.965"/>
	<text transform="matrix(1 0 0 1 400.2725 416.1694)"><tspan x="0" y="0" fill="#312A37" font-family="'Roboto-Regular'" font-size="10">Join now to start helping </tspan><tspan x="-3.843" y="12" fill="#312A37" font-family="'Roboto-Regular'" font-size="10">Global Alliance for </tspan><tspan x="80.708" y="12" fill="#C92929" font-family="'Roboto-Regular'" font-size="10">Rabies </tspan><tspan x="-13.921" y="24" fill="#C92929" font-family="'Roboto-Regular'" font-size="10">Control</tspan><tspan x="18.867" y="24" fill="#312A37" font-family="'Roboto-Regular'" font-size="10"> every time you shop</tspan></text>
</g>
<text transform="matrix(1 0 0 1 587.3618 31.5591)"><tspan x="0" y="0" fill="#ADD5AE" font-family="'Roboto-Black'" font-size="21.25">KAROLINSKA INSTITUTET (ENGLISH)</tspan><tspan x="0" y="48" fill="#ADD5AE" font-family="'Roboto-Black'" font-size="18.9583">KAROLINSKA INSTITUTET (SVENSK)</tspan><tspan x="0" y="96" fill="#ADD5AE" font-family="'Roboto-Black'" font-size="17.1354">NATIONAL INSTITUTE FOR HEALTH AND WELFARE (SUOMI)</tspan><tspan x="0" y="144" fill="#ADD5AE" font-family="'Roboto-Black'" font-size="14.9479">ZERO DISCRIMINATION</tspan><tspan x="0" y="192" fill="#ADD5AE" font-family="'Roboto-Black'" font-size="14.7917">RIDERS FOR HEALTH</tspan><tspan x="0" y="240" fill="#ADD5AE" font-family="'Roboto-Black'" font-size="13.2812">MEDICINES FOR MALARIA VENTURE</tspan><tspan x="0" y="288" fill="#ADD5AE" font-family="'Roboto-Black'" font-size="12.9167">ACT 2015: ONE GOAL, MANY VOICES</tspan><tspan x="0" y="336" fill="#ADD5AE" font-family="'Roboto-Black'" font-size="12.8646">RIDERS FOR HEALTH </tspan><tspan x="0" y="384" fill="#ADD5AE" font-family="'Roboto-Black'" font-size="12.3438">I GIVE</tspan><tspan x="0" y="432" fill="#ADD5AE" font-family="'Roboto-Black'" font-size="11.6146">ICGEB VACANCIES</tspan></text>
<g>
	<g>
		<line fill="none" stroke="#312A37" stroke-miterlimit="10" x1="563.996" y1="414.16" x2="520.417" y2="414.16"/>
		<g>
			<rect x="563.496" y="410.91" fill="#312A37" width="1" height="6.5"/>
		</g>
	</g>
</g>
<g>
	<g>
		<line fill="none" stroke="#312A37" stroke-miterlimit="10" x1="563.996" y1="316.703" x2="520.417" y2="316.703"/>
		<g>
			<rect x="563.496" y="313.453" fill="#312A37" width="1" height="6.5"/>
		</g>
	</g>
</g>
<g>
	<g>
		<line fill="none" stroke="#312A37" stroke-miterlimit="10" x1="563.996" y1="218.405" x2="520.417" y2="218.405"/>
		<g>
			<rect x="563.496" y="215.155" fill="#312A37" width="1" height="6.5"/>
		</g>
	</g>
</g>
<g>
	<g>
		<line fill="none" stroke="#312A37" stroke-miterlimit="10" x1="563.996" y1="173.896" x2="520.417" y2="173.896"/>
		<g>
			<rect x="563.496" y="170.646" fill="#312A37" width="1" height="6.5"/>
		</g>
	</g>
</g>
<g>
	<g>
		<line fill="none" stroke="#312A37" stroke-miterlimit="10" x1="563.996" y1="27.888" x2="520.417" y2="27.888"/>
		<g>
			<rect x="563.496" y="24.638" fill="#312A37" width="1" height="6.5"/>
		</g>
	</g>
</g>
<g>
	<g>
		<polyline fill="none" stroke="#312A37" stroke-miterlimit="10" points="563.996,77.493 540.417,77.493 540.417,27.888 		"/>
		<g>
			<rect x="563.496" y="74.243" fill="#312A37" width="1" height="6.5"/>
		</g>
	</g>
</g>
<g>
	<rect x="570.208" y="24.555" fill="none" width="1151.793" height="482.162"/>
	<text transform="matrix(1 0 0 1 570.208 32.1753)"><tspan x="0" y="0" fill="#312A37" font-family="'Roboto-Regular'" font-size="10">1</tspan><tspan x="0" y="48" fill="#312A37" font-family="'Roboto-Regular'" font-size="10">2</tspan><tspan x="0" y="96" fill="#312A37" font-family="'Roboto-Regular'" font-size="10">3</tspan><tspan x="0" y="144" fill="#312A37" font-family="'Roboto-Regular'" font-size="10">4</tspan><tspan x="0" y="192" fill="#312A37" font-family="'Roboto-Regular'" font-size="10">5</tspan><tspan x="0" y="240" fill="#312A37" font-family="'Roboto-Regular'" font-size="10">6</tspan><tspan x="0" y="288" fill="#312A37" font-family="'Roboto-Regular'" font-size="10">7</tspan><tspan x="0" y="336" fill="#312A37" font-family="'Roboto-Regular'" font-size="10">8</tspan><tspan x="0" y="384" fill="#312A37" font-family="'Roboto-Regular'" font-size="10">9</tspan><tspan x="0" y="432" fill="#312A37" font-family="'Roboto-Regular'" font-size="10">10</tspan></text>
</g>
<text transform="matrix(1 0 0 1 150 30.2607)"><tspan x="0" y="0" fill="#312A37" font-family="'Roboto-Regular'" font-size="8">size =</tspan><tspan x="0" y="9.6" fill="#312A37" font-family="'Roboto-Regular'" font-size="8">url frequency</tspan></text>
<text transform="matrix(1 0 0 1 0 14.5547)" fill="#5B5F51" font-family="'Roboto-Bold'" font-size="10" letter-spacing="1">url category</text>
<g>
	<rect x="0" y="58.359" fill="none" width="112.417" height="39.763"/>
	<text transform="matrix(1 0 0 1 4.882812e-04 65.979)"><tspan x="0" y="0" fill="#312A37" font-family="'Roboto-Regular'" font-size="10">“</tspan><tspan x="3.633" y="0" fill="#C92929" font-family="'Roboto-Regular'" font-size="10">relevant</tspan><tspan x="39.824" y="0" fill="#312A37" font-family="'Roboto-Regular'" font-size="10"> content”</tspan></text>
</g>
<text transform="matrix(1 0 0 1 4.882812e-04 40.3477)" fill="#312A37" font-family="'Roboto-Black'" font-size="24.1886">URL TITLE</text>
<g>
	<g>
		<line fill="none" stroke="#312A37" stroke-miterlimit="10" x1="136.417" y1="19.757" x2="136.417" y2="44.778"/>
		<g>
			<path fill="#312A37" d="M131.386,26.169c0,0.165,0.082,0.327,0.231,0.422c0.232,0.148,0.542,0.08,0.69-0.153l4.109-6.453
				l4.109,6.453c0.148,0.233,0.458,0.302,0.69,0.153s0.3-0.459,0.153-0.69l-4.531-7.115c-0.092-0.144-0.251-0.231-0.422-0.231
				s-0.33,0.087-0.422,0.231l-4.531,7.115C131.411,25.984,131.386,26.077,131.386,26.169
				C131.386,26.334,131.386,26.077,131.386,26.169z"/>
		</g>
		<g>
			<path fill="#312A37" d="M131.386,38.367c0-0.165,0.082-0.327,0.231-0.422c0.232-0.148,0.542-0.08,0.69,0.153l4.109,6.453
				l4.109-6.453c0.148-0.233,0.458-0.302,0.69-0.153s0.3,0.459,0.153,0.69l-4.531,7.115c-0.092,0.144-0.251,0.231-0.422,0.231
				s-0.33-0.087-0.422-0.231l-4.531-7.115C131.411,38.552,131.386,38.458,131.386,38.367
				C131.386,38.202,131.386,38.458,131.386,38.367z"/>
		</g>
	</g>
</g>
</svg>
