<?xml version="1.0" encoding="utf-8"?>
<!-- Generator: Adobe Illustrator 15.0.0, SVG Export Plug-In  -->
<!DOCTYPE svg PUBLIC "-//W3C//DTD SVG 1.1//EN" "http://www.w3.org/Graphics/SVG/1.1/DTD/svg11.dtd" [
	<!ENTITY ns_flows "http://ns.adobe.com/Flows/1.0/">
]>
<svg version="1.1"
	 xmlns="http://www.w3.org/2000/svg" xmlns:xlink="http://www.w3.org/1999/xlink" xmlns:a="http://ns.adobe.com/AdobeSVGViewerExtensions/3.0/"
	 x="0px" y="0px" width="1240px" height="650px" viewBox="-12.638 -108.306 1240 650"
	 overflow="visible" enable-background="new -12.638 -108.306 1240 650" xml:space="preserve">
<defs>
</defs>
<text transform="matrix(1 0 0 1 589.2529 8.5547)" fill="#5B5F51" font-family="'Roboto-Bold'" font-size="10" letter-spacing="1">job offer</text>
<text transform="matrix(1 0 0 1 589.2529 202.042)" fill="#5B5F51" font-family="'Roboto-Bold'" font-size="10" letter-spacing="1">news</text>
<text transform="matrix(1 0 0 1 589.2529 250.542)" fill="#5B5F51" font-family="'Roboto-Bold'" font-size="10" letter-spacing="1">event</text>
<text transform="matrix(1 0 0 1 589.2529 57.8994)" fill="#5B5F51" font-family="'Roboto-Bold'" font-size="10" letter-spacing="1">job offer</text>
<text transform="matrix(1 0 0 1 589.2529 106.6455)" fill="#5B5F51" font-family="'Roboto-Bold'" font-size="10" letter-spacing="1">news</text>
<text transform="matrix(1 0 0 1 589.2529 296.8994)" fill="#5B5F51" font-family="'Roboto-Bold'" font-size="10" letter-spacing="1">online service</text>
<text transform="matrix(1 0 0 1 589.2529 394.043)" fill="#5B5F51" font-family="'Roboto-Bold'" font-size="10" letter-spacing="1">initiative</text>
<text transform="matrix(1 0 0 1 589.2529 346.2285)" fill="#5B5F51" font-family="'Roboto-Bold'" font-size="10" letter-spacing="1">hospital</text>
<text transform="matrix(1 0 0 1 589.2529 154.8955)" fill="#5B5F51" font-family="'Roboto-Bold'" font-size="10" letter-spacing="1">publication</text>
<text transform="matrix(1 0 0 1 589.2529 442.5625)" fill="#5B5F51" font-family="'Roboto-Bold'" font-size="10" letter-spacing="1">publication</text>
<g>
	<g>
		<line fill="none" stroke="#312A37" stroke-miterlimit="10" x1="563.996" y1="450.245" x2="520.417" y2="450.245"/>
		<g>
			<rect x="563.496" y="446.995" fill="#312A37" width="1" height="6.5"/>
		</g>
	</g>
</g>
<g>
	<g>
		<line fill="none" stroke="#312A37" stroke-miterlimit="10" x1="563.996" y1="403.245" x2="520.417" y2="403.245"/>
		<g>
			<rect x="563.496" y="399.995" fill="#312A37" width="1" height="6.5"/>
		</g>
	</g>
</g>
<g>
	<g>
		<line fill="none" stroke="#312A37" stroke-miterlimit="10" x1="563.996" y1="308.703" x2="520.417" y2="308.703"/>
		<g>
			<rect x="563.496" y="305.453" fill="#312A37" width="1" height="6.5"/>
		</g>
	</g>
</g>
<g>
	<g>
		<line fill="none" stroke="#312A37" stroke-miterlimit="10" x1="563.996" y1="260.578" x2="520.417" y2="260.578"/>
		<g>
			<rect x="563.496" y="257.328" fill="#312A37" width="1" height="6.5"/>
		</g>
	</g>
</g>
<g>
	<g>
		<line fill="none" stroke="#312A37" stroke-miterlimit="10" x1="563.996" y1="165.896" x2="520.417" y2="165.896"/>
		<g>
			<rect x="563.496" y="162.646" fill="#312A37" width="1" height="6.5"/>
		</g>
	</g>
</g>
<g>
	<g>
		<line fill="none" stroke="#312A37" stroke-miterlimit="10" x1="563.996" y1="19.91" x2="520.417" y2="19.91"/>
		<g>
			<rect x="563.496" y="16.66" fill="#312A37" width="1" height="6.5"/>
		</g>
	</g>
</g>
<g>
	<rect x="570.208" y="16.555" fill="none" width="1151.793" height="482.162"/>
	<text transform="matrix(1 0 0 1 570.208 24.1743)"><tspan x="0" y="0" fill="#312A37" font-family="'Roboto-Regular'" font-size="10">1</tspan><tspan x="0" y="48" fill="#312A37" font-family="'Roboto-Regular'" font-size="10">2</tspan><tspan x="0" y="96" fill="#312A37" font-family="'Roboto-Regular'" font-size="10">3</tspan><tspan x="0" y="144" fill="#312A37" font-family="'Roboto-Regular'" font-size="10">4</tspan><tspan x="0" y="192" fill="#312A37" font-family="'Roboto-Regular'" font-size="10">5</tspan><tspan x="0" y="240" fill="#312A37" font-family="'Roboto-Regular'" font-size="10">6</tspan><tspan x="0" y="288" fill="#312A37" font-family="'Roboto-Regular'" font-size="10">7</tspan><tspan x="0" y="336" fill="#312A37" font-family="'Roboto-Regular'" font-size="10">8</tspan><tspan x="0" y="384" fill="#312A37" font-family="'Roboto-Regular'" font-size="10">9</tspan><tspan x="0" y="432" fill="#312A37" font-family="'Roboto-Regular'" font-size="10">10</tspan></text>
</g>
<g>
	<rect x="333.681" y="16.555" fill="none" width="178.144" height="76.187"/>
	<text transform="matrix(1 0 0 1 370.6333 24.1743)"><tspan x="0" y="0" fill="#312A37" font-family="'Roboto-Regular'" font-size="10">Our traineeships are a fantastic </tspan><tspan x="1.284" y="12" fill="#312A37" font-family="'Roboto-Regular'" font-size="10">opportunity to work for a small, </tspan><tspan x="-10.366" y="24" fill="#312A37" font-family="'Roboto-Regular'" font-size="10">creative team committed to </tspan><tspan x="116.392" y="24" fill="#C92929" font-family="'Roboto-Regular'" font-size="10">using </tspan><tspan x="-34.648" y="36" fill="#C92929" font-family="'Roboto-Regular'" font-size="10">innovation to transform public services</tspan></text>
</g>
<g>
	<rect x="371.405" y="161.1" fill="none" width="140.42" height="28.566"/>
	<text transform="matrix(1 0 0 1 434.7153 168.7202)"><tspan x="0" y="0" fill="#312A37" font-family="'Roboto-Regular'" font-size="10">10 innovations in </tspan><tspan x="-9.517" y="12" fill="#C92929" font-family="'Roboto-Regular'" font-size="10">global philanthropy</tspan></text>
</g>
<g>
	<rect x="363.639" y="231.353" fill="none" width="148.186" height="34.225"/>
	<text transform="matrix(1 0 0 1 393.4214 238.9731)"><tspan x="0" y="0" fill="#312A37" font-family="'Roboto-Regular'" font-size="10">High impact: improve your </tspan><tspan x="20.244" y="12" fill="#C92929" font-family="'Roboto-Regular'" font-size="10">charity’s performance</tspan><tspan x="118.403" y="12" fill="#312A37" font-family="'Roboto-Regular'" font-size="10"> </tspan><tspan x="28.271" y="24" fill="#312A37" font-family="'Roboto-Regular'" font-size="10">(annual conference)</tspan></text>
</g>
<g>
	<rect x="375.975" y="303.818" fill="none" width="135.85" height="45.77"/>
	<text transform="matrix(1 0 0 1 398.3188 311.438)"><tspan x="0" y="0" fill="#312A37" font-family="'Roboto-Regular'" font-size="10">Grow a stronger </tspan><tspan x="74.331" y="0" fill="#C92929" font-family="'Roboto-Regular'" font-size="10">brand</tspan><tspan x="100.308" y="0" fill="#312A37" font-family="'Roboto-Regular'" font-size="10"> by </tspan><tspan x="-21.553" y="12" fill="#312A37" font-family="'Roboto-Regular'" font-size="10">understanding your impact on </tspan><tspan x="40.693" y="24" fill="#C92929" font-family="'Roboto-Regular'" font-size="10">social channels</tspan><tspan x="110.83" y="24" fill="#312A37" font-family="'Roboto-Regular'" font-size="10">.</tspan></text>
</g>
<g>
	<rect x="333.681" y="364.703" fill="none" width="178.144" height="51.087"/>
	<text transform="matrix(1 0 0 1 345.9751 372.3228)"><tspan x="0" y="0" fill="#312A37" font-family="'Roboto-Regular'" font-size="10">“</tspan><tspan x="3.633" y="0" fill="#C92929" font-family="'Roboto-Regular'" font-size="10">David Cameron</tspan><tspan x="72.09" y="0" fill="#312A37" font-family="'Roboto-Regular'" font-size="10"> - use your #cpc2013 </tspan><tspan x="2.241" y="12" fill="#312A37" font-family="'Roboto-Regular'" font-size="10">speech to get Government, business </tspan><tspan x="16.357" y="24" fill="#312A37" font-family="'Roboto-Regular'" font-size="10">and the public #backingcharity in </tspan><tspan x="-0.366" y="36" fill="#312A37" font-family="'Roboto-Regular'" font-size="10">tough times http://thndr.it/17x0UZ1”</tspan></text>
</g>
<g>
	<rect x="444.685" y="445.562" fill="none" width="67.14" height="22.945"/>
	<text transform="matrix(1 0 0 1 465.6968 453.1821)"><tspan x="0" y="0" fill="#312A37" font-family="'Roboto-Regular'" font-size="10">Npc’s four </tspan><tspan x="-20.991" y="12" fill="#312A37" font-family="'Roboto-Regular'" font-size="10">pillar approach</tspan></text>
</g>
<text transform="matrix(1 0 0 1 587.3608 24.5542)"><tspan x="0" y="0" fill="#2D3A2E" font-family="'Roboto-Black'" font-size="14.0104">INNOVATION UNIT (TRAINEESHIP)</tspan><tspan x="0" y="48" fill="#2D3A2E" font-family="'Roboto-Black'" font-size="12.5">INNOVATION UNIT (VACANCIES)</tspan><tspan x="0" y="96" fill="#2D3A2E" font-family="'Roboto-Black'" font-size="11.4583">JOURNALISM GRANTS</tspan><tspan x="0" y="144" fill="#2D3A2E" font-family="'Roboto-Black'" font-size="11.4062">THINK NPC (BOOK)</tspan><tspan x="0" y="192" fill="#2D3A2E" font-family="'Roboto-Black'" font-size="10.7292">THE MICROFINANCE DAILY</tspan><tspan x="0" y="240" fill="#2D3A2E" font-family="'Roboto-Black'" font-size="10.625">THINK NPC (EVENT)</tspan><tspan x="0" y="288" fill="#2D3A2E" font-family="'Roboto-Black'" font-size="10.4167">SUM ALL (TWITTER SERVICE)</tspan><tspan x="0" y="336" fill="#2D3A2E" font-family="'Roboto-Black'" font-size="10.3646">CENTRE HOSPITALIER AFFILIÉ UNIVERSITAIRE DE QUÉBEC</tspan><tspan x="0" y="384" fill="#2D3A2E" font-family="'Roboto-Black'" font-size="10.0521">SOS! : CHARITIES CALL ON PM</tspan><tspan x="0" y="432" fill="#2D3A2E" font-family="'Roboto-Black'" font-size="10">THINK NPC (BOOK)</tspan></text>
<text transform="matrix(1 0 0 1 150 24.2617)"><tspan x="0" y="0" fill="#312A37" font-family="'Roboto-Regular'" font-size="8">size =</tspan><tspan x="0" y="9.6" fill="#312A37" font-family="'Roboto-Regular'" font-size="8">url frequency</tspan></text>
<text transform="matrix(1 0 0 1 0 8.5547)" fill="#5B5F51" font-family="'Roboto-Bold'" font-size="10" letter-spacing="1">url category</text>
<g>
	<rect x="0" y="52.359" fill="none" width="112.417" height="39.763"/>
	<text transform="matrix(1 0 0 1 4.882812e-04 59.979)"><tspan x="0" y="0" fill="#312A37" font-family="'Roboto-Regular'" font-size="10">“</tspan><tspan x="3.633" y="0" fill="#C92929" font-family="'Roboto-Regular'" font-size="10">relevant</tspan><tspan x="39.824" y="0" fill="#312A37" font-family="'Roboto-Regular'" font-size="10"> content”</tspan></text>
</g>
<text transform="matrix(1 0 0 1 4.882812e-04 34.3477)" fill="#312A37" font-family="'Roboto-Black'" font-size="24.1886">URL TITLE</text>
<g>
	<g>
		<line fill="none" stroke="#312A37" stroke-miterlimit="10" x1="136.417" y1="13.757" x2="136.417" y2="38.779"/>
		<g>
			<path fill="#312A37" d="M131.386,20.169c0,0.165,0.082,0.327,0.231,0.422c0.232,0.148,0.542,0.08,0.69-0.153l4.109-6.453
				l4.109,6.453c0.148,0.233,0.458,0.302,0.69,0.153s0.3-0.459,0.153-0.69l-4.531-7.115c-0.092-0.144-0.251-0.231-0.422-0.231
				s-0.33,0.087-0.422,0.231l-4.531,7.115C131.411,19.984,131.386,20.077,131.386,20.169
				C131.386,20.334,131.386,20.077,131.386,20.169z"/>
		</g>
		<g>
			<path fill="#312A37" d="M131.386,32.367c0-0.165,0.082-0.327,0.231-0.422c0.232-0.148,0.542-0.08,0.69,0.153l4.109,6.453
				l4.109-6.453c0.148-0.233,0.458-0.302,0.69-0.153s0.3,0.459,0.153,0.69l-4.531,7.115c-0.092,0.144-0.251,0.231-0.422,0.231
				s-0.33-0.087-0.422-0.231l-4.531-7.115C131.411,32.552,131.386,32.458,131.386,32.367
				C131.386,32.202,131.386,32.458,131.386,32.367z"/>
		</g>
	</g>
</g>
</svg>
