<?xml version="1.0" encoding="utf-8"?>
<!-- Generator: Adobe Illustrator 15.0.0, SVG Export Plug-In  -->
<!DOCTYPE svg PUBLIC "-//W3C//DTD SVG 1.1//EN" "http://www.w3.org/Graphics/SVG/1.1/DTD/svg11.dtd" [
	<!ENTITY ns_flows "http://ns.adobe.com/Flows/1.0/">
]>
<svg version="1.1"
	 xmlns="http://www.w3.org/2000/svg" xmlns:xlink="http://www.w3.org/1999/xlink" xmlns:a="http://ns.adobe.com/AdobeSVGViewerExtensions/3.0/"
	 x="0px" y="0px" width="1240px" height="650px" viewBox="-12.638 -108.305 1240 650"
	 overflow="visible" enable-background="new -12.638 -108.305 1240 650" xml:space="preserve">
<defs>
</defs>
<text transform="matrix(1 0 0 1 589.2529 8.5547)" fill="#5B5F51" font-family="'Roboto-Bold'" font-size="10" letter-spacing="1">online course</text>
<text transform="matrix(1 0 0 1 589.2529 202.043)" fill="#5B5F51" font-family="'Roboto-Bold'" font-size="10" letter-spacing="1">university</text>
<text transform="matrix(1 0 0 1 589.2529 250.543)" fill="#5B5F51" font-family="'Roboto-Bold'" font-size="10" letter-spacing="1">university</text>
<text transform="matrix(1 0 0 1 589.2529 57.9004)" fill="#5B5F51" font-family="'Roboto-Bold'" font-size="10" letter-spacing="1">video</text>
<text transform="matrix(1 0 0 1 589.2529 106.6465)" fill="#5B5F51" font-family="'Roboto-Bold'" font-size="10" letter-spacing="1">university</text>
<text transform="matrix(1 0 0 1 589.2529 296.9004)" fill="#5B5F51" font-family="'Roboto-Bold'" font-size="10" letter-spacing="1">video</text>
<text transform="matrix(1 0 0 1 589.2529 394.043)" fill="#5B5F51" font-family="'Roboto-Bold'" font-size="10" letter-spacing="1">university</text>
<text transform="matrix(1 0 0 1 589.2529 346.2285)" fill="#5B5F51" font-family="'Roboto-Bold'" font-size="10" letter-spacing="1">online course</text>
<text transform="matrix(1 0 0 1 589.2529 154.8965)" fill="#5B5F51" font-family="'Roboto-Bold'" font-size="10" letter-spacing="1">university</text>
<text transform="matrix(1 0 0 1 589.2529 442.5625)" fill="#5B5F51" font-family="'Roboto-Bold'" font-size="10" letter-spacing="1">video</text>
<g>
	<g>
		<line fill="none" stroke="#312A37" stroke-miterlimit="10" x1="563.996" y1="356.945" x2="520.417" y2="356.945"/>
		<g>
			<rect x="563.496" y="353.695" fill="#312A37" width="1" height="6.5"/>
		</g>
	</g>
</g>
<g>
	<g>
		<line fill="none" stroke="#312A37" stroke-miterlimit="10" x1="563.996" y1="212.666" x2="520.417" y2="212.666"/>
		<g>
			<rect x="563.496" y="209.416" fill="#312A37" width="1" height="6.5"/>
		</g>
	</g>
</g>
<g>
	<g>
		<line fill="none" stroke="#312A37" stroke-miterlimit="10" x1="563.996" y1="68.229" x2="520.417" y2="68.229"/>
		<g>
			<rect x="563.496" y="64.979" fill="#312A37" width="1" height="6.5"/>
		</g>
	</g>
</g>
<g>
	<rect x="570.208" y="16.555" fill="none" width="27.262" height="482.162"/>
	<text transform="matrix(1 0 0 1 570.208 24.1753)"><tspan x="0" y="0" fill="#312A37" font-family="'Roboto-Regular'" font-size="10">1</tspan><tspan x="0" y="48" fill="#312A37" font-family="'Roboto-Regular'" font-size="10">2</tspan><tspan x="0" y="96" fill="#312A37" font-family="'Roboto-Regular'" font-size="10">3</tspan><tspan x="0" y="144" fill="#312A37" font-family="'Roboto-Regular'" font-size="10">4</tspan><tspan x="0" y="192" fill="#312A37" font-family="'Roboto-Regular'" font-size="10">5</tspan><tspan x="0" y="240" fill="#312A37" font-family="'Roboto-Regular'" font-size="10">6</tspan><tspan x="0" y="288" fill="#312A37" font-family="'Roboto-Regular'" font-size="10">7</tspan><tspan x="0" y="336" fill="#312A37" font-family="'Roboto-Regular'" font-size="10">8</tspan><tspan x="0" y="384" fill="#312A37" font-family="'Roboto-Regular'" font-size="10">9</tspan><tspan x="0" y="432" fill="#312A37" font-family="'Roboto-Regular'" font-size="10">10</tspan></text>
</g>
<g>
	<rect x="347.121" y="64.229" fill="none" width="164.705" height="105.597"/>
	<text transform="matrix(1 0 0 1 356.5669 71.8501)"><tspan x="0" y="0" fill="#C92929" font-family="'Roboto-Regular'" font-size="10">Clearing</tspan><tspan x="36.953" y="0" fill="#312A37" font-family="'Roboto-Regular'" font-size="10"> can be a stressful time so </tspan><tspan x="-8.857" y="12" fill="#312A37" font-family="'Roboto-Regular'" font-size="10">we&apos;ve put together a few tips on how </tspan><tspan x="-3.74" y="24" fill="#312A37" font-family="'Roboto-Regular'" font-size="10">to get your parents to help you with </tspan><tspan x="102.495" y="36" fill="#312A37" font-family="'Roboto-Regular'" font-size="10">the process</tspan></text>
</g>
<g>
	<rect x="389.884" y="207.666" fill="none" width="121.941" height="105.597"/>
	<text transform="matrix(1 0 0 1 396.0933 215.2856)"><tspan x="0" y="0" fill="#312A37" font-family="'Roboto-Regular'" font-size="10">Celebrating the University </tspan><tspan x="0.166" y="12" fill="#312A37" font-family="'Roboto-Regular'" font-size="10">of Colorado Boulder class </tspan><tspan x="47.236" y="24" fill="#312A37" font-family="'Roboto-Regular'" font-size="10">of 2014! Spring </tspan><tspan x="-4.385" y="36" fill="#312A37" font-family="'Roboto-Regular'" font-size="10">Commencement is on May </tspan><tspan x="17.192" y="48" fill="#312A37" font-family="'Roboto-Regular'" font-size="10">9, 2014. Be part of the </tspan><tspan x="-1.265" y="60" fill="#312A37" font-family="'Roboto-Regular'" font-size="10">story and use the hashtag </tspan><tspan x="48.647" y="72" fill="#312A37" font-family="'Roboto-Regular'" font-size="10">#ForeverBuffs.</tspan></text>
</g>
<g>
	<rect x="389.885" y="356.945" fill="none" width="121.94" height="47.667"/>
	<text transform="matrix(1 0 0 1 438.2896 364.5649)"><tspan x="0" y="0" fill="#C92929" font-family="'Roboto-Regular'" font-size="10">Climate Change: </tspan><tspan x="-43.398" y="12" fill="#312A37" font-family="'Roboto-Regular'" font-size="10">Challenges and Solutions. </tspan><tspan x="-46.323" y="24" fill="#312A37" font-family="'Roboto-Regular'" font-size="10">A FREE </tspan><tspan x="-10.737" y="24" fill="#C92929" font-family="'Roboto-Regular'" font-size="10">online course</tspan><tspan x="49.746" y="24" fill="#312A37" font-family="'Roboto-Regular'" font-size="10"> from </tspan><tspan x="-30.771" y="36" fill="#312A37" font-family="'Roboto-Regular'" font-size="10">the University of Exeter</tspan></text>
</g>
<text transform="matrix(1 0 0 1 587.3608 25.7954)"><tspan x="0" y="0" fill="#C92929" font-family="'Roboto-Black'" font-size="15.625">DISCOVERING BUSINESS IN SOCIETY</tspan><tspan x="0" y="48" fill="#C92929" font-family="'Roboto-Black'" font-size="14.3229">HOW TO DEAL WITH PARENTS DURING CLEARING</tspan><tspan x="0" y="96" fill="#C92929" font-family="'Roboto-Black'" font-size="13.9062">LOUGHBOROUGH UNIVERSITY</tspan><tspan x="0" y="144" fill="#C92929" font-family="'Roboto-Black'" font-size="13.6458">UNIVERSITY OF STRATHCLYDE GLASGLOW</tspan><tspan x="0" y="192" fill="#C92929" font-family="'Roboto-Black'" font-size="13.6458">UNIVERSITY OF COLORADO BOULDER</tspan><tspan x="0" y="240" fill="#C92929" font-family="'Roboto-Black'" font-size="13.5417">MIDDLESEX UNIVERSITY LONDON</tspan><tspan x="0" y="288" fill="#C92929" font-family="'Roboto-Black'" font-size="13.2292">HOW TO WRITE YOUR PERSONAL STATEMENT</tspan><tspan x="0" y="336" fill="#C92929" font-family="'Roboto-Black'" font-size="12.3958">UNIVERSITY OF EXETER</tspan><tspan x="0" y="384" fill="#C92929" font-family="'Roboto-Black'" font-size="11.0417">UNIVERSITY OF CAPE TOWN</tspan><tspan x="0" y="432" fill="#C92929" font-family="'Roboto-Black'" font-size="10.9896">THIS IS SWOT</tspan></text>
<text transform="matrix(1 0 0 1 150 24.2617)"><tspan x="0" y="0" fill="#312A37" font-family="'Roboto-Regular'" font-size="8">size =</tspan><tspan x="0" y="9.6" fill="#312A37" font-family="'Roboto-Regular'" font-size="8">url frequency</tspan></text>
<text transform="matrix(1 0 0 1 0 8.5547)" fill="#5B5F51" font-family="'Roboto-Bold'" font-size="10" letter-spacing="1">url category</text>
<g>
	<rect x="0" y="52.359" fill="none" width="112.417" height="39.763"/>
	<text transform="matrix(1 0 0 1 4.882812e-04 59.979)"><tspan x="0" y="0" fill="#312A37" font-family="'Roboto-Regular'" font-size="10">“</tspan><tspan x="3.633" y="0" fill="#C92929" font-family="'Roboto-Regular'" font-size="10">relevant</tspan><tspan x="39.824" y="0" fill="#312A37" font-family="'Roboto-Regular'" font-size="10"> content”</tspan></text>
</g>
<text transform="matrix(1 0 0 1 4.882812e-04 34.3481)" fill="#312A37" font-family="'Roboto-Black'" font-size="24.1886">URL TITLE</text>
<g>
	<g>
		<line fill="none" stroke="#312A37" stroke-miterlimit="10" x1="136.417" y1="13.757" x2="136.417" y2="38.779"/>
		<g>
			<path fill="#312A37" d="M131.386,20.169c0,0.165,0.082,0.327,0.231,0.422c0.232,0.148,0.542,0.08,0.69-0.153l4.109-6.453
				l4.109,6.453c0.148,0.233,0.458,0.302,0.69,0.153s0.3-0.459,0.153-0.69l-4.531-7.115c-0.092-0.144-0.251-0.231-0.422-0.231
				s-0.33,0.087-0.422,0.231l-4.531,7.115C131.411,19.984,131.386,20.078,131.386,20.169
				C131.386,20.334,131.386,20.078,131.386,20.169z"/>
		</g>
		<g>
			<path fill="#312A37" d="M131.386,32.367c0-0.165,0.082-0.327,0.231-0.422c0.232-0.148,0.542-0.08,0.69,0.153l4.109,6.453
				l4.109-6.453c0.148-0.233,0.458-0.302,0.69-0.153s0.3,0.459,0.153,0.69l-4.531,7.115c-0.092,0.144-0.251,0.231-0.422,0.231
				s-0.33-0.087-0.422-0.231l-4.531-7.115C131.411,32.552,131.386,32.459,131.386,32.367
				C131.386,32.202,131.386,32.459,131.386,32.367z"/>
		</g>
	</g>
</g>
</svg>
