<?xml version="1.0" encoding="utf-8"?>
<!-- Generator: Adobe Illustrator 15.0.0, SVG Export Plug-In  -->
<!DOCTYPE svg PUBLIC "-//W3C//DTD SVG 1.1//EN" "http://www.w3.org/Graphics/SVG/1.1/DTD/svg11.dtd" [
	<!ENTITY ns_flows "http://ns.adobe.com/Flows/1.0/">
]>
<svg version="1.1"
	 xmlns="http://www.w3.org/2000/svg" xmlns:xlink="http://www.w3.org/1999/xlink" xmlns:a="http://ns.adobe.com/AdobeSVGViewerExtensions/3.0/"
	 x="0px" y="0px" width="1240px" height="650px" viewBox="-12.638 -108.306 1240 650"
	 overflow="visible" enable-background="new -12.638 -108.306 1240 650" xml:space="preserve">
<defs>
</defs>
<text transform="matrix(1 0 0 1 589.2529 8.5547)" fill="#5B5F51" font-family="'Roboto-Bold'" font-size="10" letter-spacing="1">job</text>
<text transform="matrix(1 0 0 1 589.2529 202.041)" fill="#5B5F51" font-family="'Roboto-Bold'" font-size="10" letter-spacing="1">video</text>
<text transform="matrix(1 0 0 1 589.2529 250.541)" fill="#5B5F51" font-family="'Roboto-Bold'" font-size="10" letter-spacing="1">video</text>
<text transform="matrix(1 0 0 1 589.2529 57.8984)" fill="#5B5F51" font-family="'Roboto-Bold'" font-size="10" letter-spacing="1">initiative</text>
<text transform="matrix(1 0 0 1 589.2529 106.6445)" fill="#5B5F51" font-family="'Roboto-Bold'" font-size="10" letter-spacing="1">news</text>
<text transform="matrix(1 0 0 1 589.2529 299.8984)" fill="#5B5F51" font-family="'Roboto-Bold'" font-size="10" letter-spacing="1">event</text>
<text transform="matrix(1 0 0 1 589.2529 396.042)" fill="#5B5F51" font-family="'Roboto-Bold'" font-size="10" letter-spacing="1">news</text>
<text transform="matrix(1 0 0 1 589.2529 348.2275)" fill="#5B5F51" font-family="'Roboto-Bold'" font-size="10" letter-spacing="1">event</text>
<text transform="matrix(1 0 0 1 589.2529 154.8945)" fill="#5B5F51" font-family="'Roboto-Bold'" font-size="10" letter-spacing="1">event</text>
<text transform="matrix(1 0 0 1 589.2529 444.5615)" fill="#5B5F51" font-family="'Roboto-Bold'" font-size="10" letter-spacing="1">event</text>
<g>
	<g>
		<line fill="none" stroke="#312A37" stroke-miterlimit="10" x1="563.996" y1="404.788" x2="520.417" y2="404.788"/>
		<g>
			<rect x="563.496" y="401.538" fill="#312A37" width="1" height="6.5"/>
		</g>
	</g>
</g>
<g>
	<g>
		<line fill="none" stroke="#312A37" stroke-miterlimit="10" x1="563.996" y1="309.121" x2="520.417" y2="309.121"/>
		<g>
			<rect x="563.496" y="305.871" fill="#312A37" width="1" height="6.5"/>
		</g>
	</g>
</g>
<g>
	<g>
		<line fill="none" stroke="#312A37" stroke-miterlimit="10" x1="563.996" y1="453.122" x2="520.417" y2="453.122"/>
		<g>
			<rect x="563.496" y="449.872" fill="#312A37" width="1" height="6.5"/>
		</g>
	</g>
</g>
<g>
	<g>
		<line fill="none" stroke="#312A37" stroke-miterlimit="10" x1="563.996" y1="117.205" x2="520.417" y2="117.205"/>
		<g>
			<rect x="563.496" y="113.955" fill="#312A37" width="1" height="6.5"/>
		</g>
	</g>
</g>
<g>
	<g>
		<line fill="none" stroke="#312A37" stroke-miterlimit="10" x1="563.996" y1="68.229" x2="520.417" y2="68.229"/>
		<g>
			<rect x="563.496" y="64.979" fill="#312A37" width="1" height="6.5"/>
		</g>
	</g>
</g>
<g>
	<rect x="570.208" y="16.554" fill="none" width="27.262" height="482.162"/>
	<text transform="matrix(1 0 0 1 570.208 24.1743)"><tspan x="0" y="0" fill="#312A37" font-family="'Roboto-Regular'" font-size="10">1</tspan><tspan x="0" y="48" fill="#312A37" font-family="'Roboto-Regular'" font-size="10">2</tspan><tspan x="0" y="96" fill="#312A37" font-family="'Roboto-Regular'" font-size="10">3</tspan><tspan x="0" y="144" fill="#312A37" font-family="'Roboto-Regular'" font-size="10">4</tspan><tspan x="0" y="192" fill="#312A37" font-family="'Roboto-Regular'" font-size="10">5</tspan><tspan x="0" y="240" fill="#312A37" font-family="'Roboto-Regular'" font-size="10">6</tspan><tspan x="0" y="288" fill="#312A37" font-family="'Roboto-Regular'" font-size="10">7</tspan><tspan x="0" y="336" fill="#312A37" font-family="'Roboto-Regular'" font-size="10">8</tspan><tspan x="0" y="384" fill="#312A37" font-family="'Roboto-Regular'" font-size="10">9</tspan><tspan x="0" y="432" fill="#312A37" font-family="'Roboto-Regular'" font-size="10">10</tspan></text>
</g>
<g>
	<rect x="329.113" y="112.456" fill="none" width="182.506" height="45.511"/>
	<text transform="matrix(1 0 0 1 355.896 120.0757)"><tspan x="0" y="0" fill="#312A37" font-family="'Roboto-Regular'" font-size="10">Dr Jenner&apos;s House is an accredited </tspan><tspan x="-8.691" y="12" fill="#C92929" font-family="'Roboto-Regular'" font-size="10">historic house museum</tspan><tspan x="97.041" y="12" fill="#312A37" font-family="'Roboto-Regular'" font-size="10"> and heritage </tspan><tspan x="-16.899" y="24" fill="#312A37" font-family="'Roboto-Regular'" font-size="10">visitor attraction owned by The Jenner </tspan><tspan x="36.699" y="36" fill="#312A37" font-family="'Roboto-Regular'" font-size="10">Trust, a Registered Charity</tspan></text>
</g>
<g>
	<rect x="323.75" y="29.261" fill="none" width="182.868" height="58.194"/>
	<text transform="matrix(1 0 0 1 336.9995 36.8813)"><tspan x="0" y="0" fill="#312A37" font-family="'Roboto-Regular'" font-size="10">We are passionate about </tspan><tspan x="114.053" y="0" fill="#C92929" font-family="'Roboto-Regular'" font-size="10">empowering </tspan><tspan x="-9.98" y="12" fill="#C92929" font-family="'Roboto-Regular'" font-size="10">people</tspan><tspan x="20.166" y="12" fill="#312A37" font-family="'Roboto-Regular'" font-size="10"> to create positive change in their </tspan><tspan x="59.272" y="24" fill="#312A37" font-family="'Roboto-Regular'" font-size="10">community, city, country </tspan><tspan x="96.138" y="36" fill="#312A37" font-family="'Roboto-Regular'" font-size="10">– or in the world</tspan></text>
</g>
<g>
	<rect x="350.875" y="306.121" fill="none" width="158.077" height="11.001"/>
	<text transform="matrix(1 0 0 1 373.9224 313.7407)"><tspan x="0" y="0" fill="#312A37" font-family="'Roboto-Regular'" font-size="10">Edward Jenner &amp; </tspan><tspan x="78.281" y="0" fill="#C92929" font-family="'Roboto-Regular'" font-size="10">freemasonry</tspan></text>
</g>
<g>
	<rect x="410.542" y="450.122" fill="none" width="96.077" height="11"/>
	<text transform="matrix(1 0 0 1 412.019 457.7407)" fill="#312A37" font-family="'Roboto-Regular'" font-size="10">William Herschel talk</text>
</g>
<g>
	<rect x="348.542" y="399.228" fill="none" width="158.077" height="48.334"/>
	<text transform="matrix(1 0 0 1 405.9497 406.8481)"><tspan x="0" y="0" fill="#312A37" font-family="'Roboto-Regular'" font-size="10">We welcome talks and </tspan><tspan x="-32.993" y="12" fill="#312A37" font-family="'Roboto-Regular'" font-size="10">conversation on </tspan><tspan x="41.836" y="12" fill="#C92929" font-family="'Roboto-Regular'" font-size="10">abortion</tspan><tspan x="79.473" y="12" fill="#312A37" font-family="'Roboto-Regular'" font-size="10"> as a </tspan><tspan x="14.917" y="24" fill="#312A37" font-family="'Roboto-Regular'" font-size="10">social justice issue</tspan></text>
</g>
<text transform="matrix(1 0 0 1 589.2529 27.3394)"><tspan x="0" y="0" fill="#EEBC32" font-family="'Roboto-Black'" font-size="18.125">THE GUARDIAN</tspan><tspan x="0" y="48" fill="#EEBC32" font-family="'Roboto-Black'" font-size="16.6146">ONE PERCENT CLUB</tspan><tspan x="0" y="96" fill="#EEBC32" font-family="'Roboto-Black'" font-size="15.1042">JENNER HOUSE</tspan><tspan x="0" y="144" fill="#EEBC32" font-family="'Roboto-Black'" font-size="15">JENNER HOUSE</tspan><tspan x="0" y="192" fill="#EEBC32" font-family="'Roboto-Black'" font-size="14.7917">JOHNS HOPKINS UNIVERSITY</tspan><tspan x="0" y="240" fill="#EEBC32" font-family="'Roboto-Black'" font-size="13.5938">JOHNS HOPKINS UNIVERSITY</tspan><tspan x="0" y="288" fill="#EEBC32" font-family="'Roboto-Black'" font-size="12.8125">JENNER HOUSE</tspan><tspan x="0" y="336" fill="#EEBC32" font-family="'Roboto-Black'" font-size="12.3958">JENNER HOUSE</tspan><tspan x="0" y="384" fill="#EEBC32" font-family="'Roboto-Black'" font-size="12.2917">TED BLOG</tspan><tspan x="0" y="432" fill="#EEBC32" font-family="'Roboto-Black'" font-size="12.0312">JENNER HOUSE</tspan></text>
<text transform="matrix(1 0 0 1 150 24.2607)"><tspan x="0" y="0" fill="#312A37" font-family="'Roboto-Regular'" font-size="8">size =</tspan><tspan x="0" y="9.6" fill="#312A37" font-family="'Roboto-Regular'" font-size="8">url frequency</tspan></text>
<text transform="matrix(1 0 0 1 0 8.5547)" fill="#5B5F51" font-family="'Roboto-Bold'" font-size="10" letter-spacing="1">url category</text>
<g>
	<rect x="0" y="52.358" fill="none" width="112.417" height="39.763"/>
	<text transform="matrix(1 0 0 1 4.882812e-04 59.978)"><tspan x="0" y="0" fill="#312A37" font-family="'Roboto-Regular'" font-size="10">“</tspan><tspan x="3.633" y="0" fill="#C92929" font-family="'Roboto-Regular'" font-size="10">relevant</tspan><tspan x="39.824" y="0" fill="#312A37" font-family="'Roboto-Regular'" font-size="10"> content”</tspan></text>
</g>
<text transform="matrix(1 0 0 1 4.882812e-04 34.3472)" fill="#312A37" font-family="'Roboto-Black'" font-size="24.1886">URL TITLE</text>
<g>
	<g>
		<line fill="none" stroke="#312A37" stroke-miterlimit="10" x1="136.417" y1="13.756" x2="136.417" y2="38.778"/>
		<g>
			<path fill="#312A37" d="M131.386,20.168c0,0.165,0.082,0.327,0.231,0.422c0.232,0.148,0.542,0.08,0.69-0.153l4.109-6.453
				l4.109,6.453c0.148,0.233,0.458,0.302,0.69,0.153s0.3-0.459,0.153-0.69l-4.531-7.115c-0.092-0.144-0.251-0.231-0.422-0.231
				s-0.33,0.087-0.422,0.231l-4.531,7.115C131.411,19.983,131.386,20.077,131.386,20.168
				C131.386,20.333,131.386,20.077,131.386,20.168z"/>
		</g>
		<g>
			<path fill="#312A37" d="M131.386,32.366c0-0.165,0.082-0.327,0.231-0.422c0.232-0.148,0.542-0.08,0.69,0.153l4.109,6.453
				l4.109-6.453c0.148-0.233,0.458-0.302,0.69-0.153s0.3,0.459,0.153,0.69l-4.531,7.115c-0.092,0.144-0.251,0.231-0.422,0.231
				s-0.33-0.087-0.422-0.231l-4.531-7.115C131.411,32.551,131.386,32.458,131.386,32.366
				C131.386,32.201,131.386,32.458,131.386,32.366z"/>
		</g>
	</g>
</g>
</svg>
